# Blender v2.81 (sub 16) OBJ File: 'test.blend'
# www.blender.org
mtllib TestCube.mtl
o Cube
v 1.607230 0.916948 -1.048195
v 1.594010 -1.086191 -1.044159
v 0.670592 0.977170 1.123643
v 0.569525 -0.930286 1.027622
v -0.586275 0.754836 -0.918957
v -0.211894 -1.193911 -1.022980
v -0.921111 0.836343 1.037961
v -0.429352 -1.136959 0.966221
vt 0.625000 0.500000
vt 0.875000 0.500000
vt 0.875000 0.750000
vt 0.625000 0.750000
vt 0.375000 0.750000
vt 0.625000 1.000000
vt 0.375000 1.000000
vt 0.375000 0.000000
vt 0.625000 0.000000
vt 0.625000 0.250000
vt 0.375000 0.250000
vt 0.125000 0.500000
vt 0.375000 0.500000
vt 0.125000 0.750000
vn -0.0803 0.9950 -0.0589
vn -0.0502 -0.0482 0.9976
vn -0.9696 -0.2084 -0.1284
vn 0.1098 -0.9903 0.0855
vn 0.9064 -0.0364 0.4208
vn -0.0390 0.0217 -0.9990
usemtl Material
s off
f 1/1/1 5/2/1 7/3/1 3/4/1
f 4/5/2 3/4/2 7/6/2 8/7/2
f 8/8/3 7/9/3 5/10/3 6/11/3
f 6/12/4 2/13/4 4/5/4 8/14/4
f 2/13/5 1/1/5 3/4/5 4/5/5
f 6/11/6 5/10/6 1/1/6 2/13/6
