# Blender v2.81 (sub 16) OBJ File: 'TempCubeframe2.blend'
# www.blender.org
mtllib TestCube7frame3flat.mtl
o Cube.002_Cube.006
v 1.237896 -1.000000 -0.708183
v 1.245409 0.895882 -0.718884
v 1.251016 -0.816655 -0.894273
v 1.240534 0.964613 -0.910457
v 1.390277 -1.000000 -0.708183
v 1.381955 0.884237 -0.720081
v 1.376960 -0.813249 -0.893915
v 1.387605 0.964616 -0.910494
v -0.998394 -0.993980 0.999868
v -0.986742 0.633553 0.982099
v -0.984257 -0.845141 0.813544
v -0.988776 0.688782 0.807908
v -0.856143 -0.894678 0.986264
v -0.865156 0.590383 0.975370
v -0.846591 -0.987503 0.795000
v -0.850944 0.749218 0.800755
v 0.648737 -0.813010 0.871708
v 0.498141 0.621451 0.868781
v 0.655203 -0.967686 0.685402
v 0.476069 0.751548 0.690246
v 0.749485 -0.823881 0.872335
v 0.594188 0.628865 0.870310
v 0.769306 -0.930176 0.688045
v 0.587081 0.807049 0.685384
v -0.701003 -0.935489 -0.369228
v -0.698044 0.889635 -0.373998
v -0.695862 -0.856212 -0.553601
v -0.706453 1.000000 -0.568221
v -0.554072 -1.000000 -0.362655
v -0.554072 1.000000 -0.362655
v -0.564598 -0.858915 -0.552409
v -0.561057 0.908329 -0.558799
v -0.843129 0.655545 0.973927
v -0.584265 0.752412 0.916745
v -0.922680 0.651601 0.795543
v -0.887910 0.775710 0.795017
v 0.524914 0.662541 0.831896
v 0.618904 0.774233 0.832207
v 0.572156 0.657192 0.657219
v 0.640215 0.778508 0.643019
v -0.662769 -0.987770 0.944972
v -0.885127 -0.878033 0.992986
v -0.762270 -0.992892 0.800717
v -0.903928 -0.878033 0.800342
v 0.597923 -0.987898 0.823602
v 0.681328 -0.883979 0.828860
v 0.639292 -0.995461 0.662716
v 0.758275 -0.878033 0.638126
v 0.750089 -0.872544 0.784168
v 0.820637 -0.980242 0.609715
v 1.420146 -0.885567 -0.567386
v 1.512590 -0.996462 -0.715473
v 0.608189 -0.870951 0.737141
v 0.620765 -0.993466 0.716094
v 1.384567 -0.872695 -0.786485
v 1.390652 -0.994618 -0.800493
v -0.802982 -0.878169 0.927823
v -0.786011 -0.986465 0.744613
v -0.504425 -0.878929 -0.450852
v -0.533448 -0.992354 -0.374188
v -0.987026 -0.878252 0.886633
v -0.944456 -0.990844 0.761344
v -0.687101 -0.879435 -0.482793
v -0.691253 -0.992376 -0.403178
v 0.673478 0.847433 0.850217
v 0.735138 0.758348 0.653028
v 1.266032 0.983925 -0.608423
v 1.376141 0.897575 -0.823576
v 0.557564 0.852033 0.731334
v 0.521644 0.726484 0.792037
v 1.210017 1.016878 -0.831992
v 1.226560 0.900657 -0.886095
v -0.532180 0.872669 -0.348556
v -0.532180 0.999577 -0.348556
v -0.581667 0.872669 -0.536896
v -0.375498 0.985159 -0.568237
v 1.316046 0.872669 -0.834194
v 1.220127 0.993157 -0.819053
v 1.261982 0.872972 -1.020819
v 1.211952 0.995417 -1.002097
v -0.802742 0.772746 0.826436
v -0.816880 0.640923 0.902358
v -0.494460 1.012074 -0.415756
v -0.491412 0.894785 -0.455682
v -0.949795 0.785904 0.758817
v -0.989218 0.661128 0.832045
v -0.681755 0.996030 -0.360882
v -0.674971 0.907415 -0.497183
v -0.532180 0.872669 -0.348556
v -0.532180 0.999577 -0.348556
v -0.581667 0.872669 -0.536896
v -0.375498 0.985159 -0.568237
v 1.316046 0.872669 -0.834194
v 1.220127 0.993157 -0.819053
v 1.261982 0.872972 -1.020819
v 1.211952 0.995417 -1.002097
v -0.547140 -0.999175 -0.406542
v -0.289917 -0.890740 -0.467999
v -0.434469 -0.990084 -0.602724
v -0.579803 -0.872713 -0.598292
v 1.470452 -0.999611 -0.672747
v 1.391079 -0.877633 -0.669407
v 1.385445 -0.995891 -0.852299
v 1.201483 -0.887336 -0.811268
vt 0.375000 0.000000
vt 0.625000 0.000000
vt 0.625000 0.250000
vt 0.375000 0.250000
vt 0.625000 0.500000
vt 0.375000 0.500000
vt 0.625000 0.750000
vt 0.375000 0.750000
vt 0.625000 1.000000
vt 0.375000 1.000000
vt 0.125000 0.500000
vt 0.125000 0.750000
vt 0.875000 0.500000
vt 0.875000 0.750000
vt 0.375000 0.000000
vt 0.625000 0.000000
vt 0.625000 0.250000
vt 0.375000 0.250000
vt 0.625000 0.500000
vt 0.375000 0.500000
vt 0.625000 0.750000
vt 0.375000 0.750000
vt 0.625000 1.000000
vt 0.375000 1.000000
vt 0.125000 0.500000
vt 0.125000 0.750000
vt 0.875000 0.500000
vt 0.875000 0.750000
vt 0.375000 0.000000
vt 0.625000 0.000000
vt 0.625000 0.250000
vt 0.375000 0.250000
vt 0.625000 0.500000
vt 0.375000 0.500000
vt 0.625000 0.750000
vt 0.375000 0.750000
vt 0.625000 1.000000
vt 0.375000 1.000000
vt 0.125000 0.500000
vt 0.125000 0.750000
vt 0.875000 0.500000
vt 0.875000 0.750000
vt 0.375000 0.000000
vt 0.625000 0.000000
vt 0.625000 0.250000
vt 0.375000 0.250000
vt 0.625000 0.500000
vt 0.375000 0.500000
vt 0.625000 0.750000
vt 0.375000 0.750000
vt 0.625000 1.000000
vt 0.375000 1.000000
vt 0.125000 0.500000
vt 0.125000 0.750000
vt 0.875000 0.500000
vt 0.875000 0.750000
vt 0.375000 0.000000
vt 0.625000 0.000000
vt 0.625000 0.250000
vt 0.375000 0.250000
vt 0.625000 0.500000
vt 0.375000 0.500000
vt 0.625000 0.750000
vt 0.375000 0.750000
vt 0.625000 1.000000
vt 0.375000 1.000000
vt 0.125000 0.500000
vt 0.125000 0.750000
vt 0.875000 0.500000
vt 0.875000 0.750000
vt 0.375000 0.000000
vt 0.625000 0.000000
vt 0.625000 0.250000
vt 0.375000 0.250000
vt 0.625000 0.500000
vt 0.375000 0.500000
vt 0.625000 0.750000
vt 0.375000 0.750000
vt 0.625000 1.000000
vt 0.375000 1.000000
vt 0.125000 0.500000
vt 0.125000 0.750000
vt 0.875000 0.500000
vt 0.875000 0.750000
vt 0.375000 0.000000
vt 0.625000 0.000000
vt 0.625000 0.250000
vt 0.375000 0.250000
vt 0.625000 0.500000
vt 0.375000 0.500000
vt 0.625000 0.750000
vt 0.375000 0.750000
vt 0.625000 1.000000
vt 0.375000 1.000000
vt 0.125000 0.500000
vt 0.125000 0.750000
vt 0.875000 0.500000
vt 0.875000 0.750000
vt 0.375000 0.000000
vt 0.625000 0.000000
vt 0.625000 0.250000
vt 0.375000 0.250000
vt 0.625000 0.500000
vt 0.375000 0.500000
vt 0.625000 0.750000
vt 0.375000 0.750000
vt 0.625000 1.000000
vt 0.375000 1.000000
vt 0.125000 0.500000
vt 0.125000 0.750000
vt 0.875000 0.500000
vt 0.875000 0.750000
vt 0.375000 0.000000
vt 0.625000 0.000000
vt 0.625000 0.250000
vt 0.375000 0.250000
vt 0.625000 0.500000
vt 0.375000 0.500000
vt 0.625000 0.750000
vt 0.375000 0.750000
vt 0.625000 1.000000
vt 0.375000 1.000000
vt 0.125000 0.500000
vt 0.125000 0.750000
vt 0.875000 0.500000
vt 0.875000 0.750000
vt 0.375000 0.000000
vt 0.625000 0.000000
vt 0.625000 0.250000
vt 0.375000 0.250000
vt 0.625000 0.500000
vt 0.375000 0.500000
vt 0.625000 0.750000
vt 0.375000 0.750000
vt 0.625000 1.000000
vt 0.375000 1.000000
vt 0.125000 0.500000
vt 0.125000 0.750000
vt 0.875000 0.500000
vt 0.875000 0.750000
vt 0.375000 0.000000
vt 0.625000 0.000000
vt 0.625000 0.250000
vt 0.375000 0.250000
vt 0.625000 0.500000
vt 0.375000 0.500000
vt 0.625000 0.750000
vt 0.375000 0.750000
vt 0.625000 1.000000
vt 0.375000 1.000000
vt 0.125000 0.500000
vt 0.125000 0.750000
vt 0.875000 0.500000
vt 0.875000 0.750000
vt 0.375000 0.000000
vt 0.625000 0.000000
vt 0.625000 0.250000
vt 0.375000 0.250000
vt 0.625000 0.500000
vt 0.375000 0.500000
vt 0.625000 0.750000
vt 0.375000 0.750000
vt 0.625000 1.000000
vt 0.375000 1.000000
vt 0.125000 0.500000
vt 0.125000 0.750000
vt 0.875000 0.500000
vt 0.875000 0.750000
vt 0.375000 0.000000
vt 0.625000 0.000000
vt 0.625000 0.250000
vt 0.375000 0.250000
vt 0.625000 0.500000
vt 0.375000 0.500000
vt 0.625000 0.750000
vt 0.375000 0.750000
vt 0.625000 1.000000
vt 0.375000 1.000000
vt 0.125000 0.500000
vt 0.125000 0.750000
vt 0.875000 0.500000
vt 0.875000 0.750000
vn -0.9997 -0.0010 -0.0225
vn 0.0013 -0.0092 -1.0000
vn 0.9998 -0.0008 -0.0209
vn 0.0044 0.0060 1.0000
vn 0.0096 -0.7087 -0.7054
vn 0.0398 0.9308 0.3634
vn -0.9995 0.0020 -0.0324
vn -0.0929 -0.0002 -0.9957
vn 0.9978 0.0042 0.0656
vn 0.0749 0.0091 0.9971
vn -0.1676 -0.9736 -0.1549
vn -0.0288 0.8524 0.5221
vn -0.9934 -0.1039 0.0495
vn -0.0097 -0.0004 -1.0000
vn 0.9930 0.1051 0.0547
vn -0.0109 0.0006 0.9999
vn 0.0918 -0.8111 0.5777
vn -0.2135 0.7365 0.6418
vn -1.0000 -0.0020 0.0076
vn 0.0364 -0.0057 -0.9993
vn 0.9990 -0.0010 -0.0455
vn -0.0617 0.0013 0.9981
vn -0.1908 -0.8470 -0.4961
vn -0.0680 0.9964 0.0504
vn -0.4160 0.7033 0.5765
vn -0.0955 -0.0197 -0.9952
vn 0.8153 -0.5578 0.1553
vn 0.0857 0.1245 0.9885
vn 0.0069 -0.9996 0.0257
vn -0.0012 0.9960 0.0894
vn -0.4978 -0.8467 0.1877
vn -0.0970 -0.1157 -0.9885
vn 0.7258 -0.6420 0.2472
vn 0.0984 -0.1800 0.9787
vn 0.0030 -0.9992 0.0410
vn 0.0035 0.9999 0.0160
vn 0.8912 -0.0047 0.4535
vn 0.7440 0.5641 -0.3581
vn -0.8913 -0.0030 -0.4533
vn 0.1561 -0.6060 0.7800
vn 0.0508 0.9985 0.0204
vn 0.0370 -0.9990 0.0251
vn 0.9646 -0.1549 0.2133
vn 0.1448 -0.5764 -0.8042
vn -0.9697 -0.1223 -0.2115
vn -0.0307 -0.8155 0.5780
vn -0.0014 1.0000 -0.0010
vn 0.0137 -0.9999 0.0063
vn 0.9221 -0.0065 0.3869
vn 0.5649 0.7648 -0.3097
vn -0.9229 0.0636 -0.3798
vn 0.0952 -0.5260 0.8451
vn 0.0108 0.9946 0.1036
vn 0.0638 -0.9954 -0.0717
vn -0.7532 0.6199 -0.2198
vn -0.2569 0.1192 -0.9591
vn 0.8404 0.5241 -0.1379
vn 0.2565 0.0404 0.9657
vn -0.0001 -1.0000 -0.0008
vn -0.0104 0.9994 -0.0340
vn 0.9719 -0.0093 0.2351
vn -0.0334 0.6490 -0.7601
vn -0.9604 0.2032 -0.1905
vn -0.2905 0.5255 0.7997
vn -0.0155 0.9829 0.1833
vn -0.0308 -0.9813 -0.1900
vn -0.7509 0.4852 0.4479
vn -0.1273 0.0140 -0.9918
vn 0.5351 0.7018 -0.4703
vn 0.1235 0.1521 0.9806
vn -0.0063 -0.9994 -0.0345
vn 0.0034 0.9997 0.0246
usemtl None
s off
f 1/1/1 2/2/1 4/3/1 3/4/1
f 3/4/2 4/3/2 8/5/2 7/6/2
f 7/6/3 8/5/3 6/7/3 5/8/3
f 5/8/4 6/7/4 2/9/4 1/10/4
f 3/11/5 7/6/5 5/8/5 1/12/5
f 8/5/6 4/13/6 2/14/6 6/7/6
f 9/15/7 10/16/7 12/17/7 11/18/7
f 11/18/8 12/17/8 16/19/8 15/20/8
f 15/20/9 16/19/9 14/21/9 13/22/9
f 13/22/10 14/21/10 10/23/10 9/24/10
f 11/25/11 15/20/11 13/22/11 9/26/11
f 16/19/12 12/27/12 10/28/12 14/21/12
f 17/29/13 18/30/13 20/31/13 19/32/13
f 19/32/14 20/31/14 24/33/14 23/34/14
f 23/34/15 24/33/15 22/35/15 21/36/15
f 21/36/16 22/35/16 18/37/16 17/38/16
f 19/39/17 23/34/17 21/36/17 17/40/17
f 24/33/18 20/41/18 18/42/18 22/35/18
f 25/43/19 26/44/19 28/45/19 27/46/19
f 27/46/20 28/45/20 32/47/20 31/48/20
f 31/48/21 32/47/21 30/49/21 29/50/21
f 29/50/22 30/49/22 26/51/22 25/52/22
f 27/53/23 31/48/23 29/50/23 25/54/23
f 32/47/24 28/55/24 26/56/24 30/49/24
f 33/57/25 34/58/25 36/59/25 35/60/25
f 35/60/26 36/59/26 40/61/26 39/62/26
f 39/62/27 40/61/27 38/63/27 37/64/27
f 37/64/28 38/63/28 34/65/28 33/66/28
f 35/67/29 39/62/29 37/64/29 33/68/29
f 40/61/30 36/69/30 34/70/30 38/63/30
f 41/71/31 42/72/31 44/73/31 43/74/31
f 43/74/32 44/73/32 48/75/32 47/76/32
f 47/76/33 48/75/33 46/77/33 45/78/33
f 45/78/34 46/77/34 42/79/34 41/80/34
f 43/81/35 47/76/35 45/78/35 41/82/35
f 48/75/36 44/83/36 42/84/36 46/77/36
f 49/85/37 50/86/37 52/87/37 51/88/37
f 51/88/38 52/87/38 56/89/38 55/90/38
f 55/90/39 56/89/39 54/91/39 53/92/39
f 53/92/40 54/91/40 50/93/40 49/94/40
f 51/95/41 55/90/41 53/92/41 49/96/41
f 56/89/42 52/97/42 50/98/42 54/91/42
f 57/99/43 58/100/43 60/101/43 59/102/43
f 59/102/44 60/101/44 64/103/44 63/104/44
f 63/104/45 64/103/45 62/105/45 61/106/45
f 61/106/46 62/105/46 58/107/46 57/108/46
f 59/109/47 63/104/47 61/106/47 57/110/47
f 64/103/48 60/111/48 58/112/48 62/105/48
f 65/113/49 66/114/49 68/115/49 67/116/49
f 67/116/50 68/115/50 72/117/50 71/118/50
f 71/118/51 72/117/51 70/119/51 69/120/51
f 69/120/52 70/119/52 66/121/52 65/122/52
f 67/123/53 71/118/53 69/120/53 65/124/53
f 72/117/54 68/125/54 66/126/54 70/119/54
f 73/127/55 74/128/55 76/129/55 75/130/55
f 75/130/56 76/129/56 80/131/56 79/132/56
f 79/132/57 80/131/57 78/133/57 77/134/57
f 77/134/58 78/133/58 74/135/58 73/136/58
f 75/137/59 79/132/59 77/134/59 73/138/59
f 80/131/60 76/139/60 74/140/60 78/133/60
f 81/141/61 82/142/61 84/143/61 83/144/61
f 83/144/62 84/143/62 88/145/62 87/146/62
f 87/146/63 88/145/63 86/147/63 85/148/63
f 85/148/64 86/147/64 82/149/64 81/150/64
f 83/151/65 87/146/65 85/148/65 81/152/65
f 88/145/66 84/153/66 82/154/66 86/147/66
f 89/155/55 90/156/55 92/157/55 91/158/55
f 91/158/56 92/157/56 96/159/56 95/160/56
f 95/160/57 96/159/57 94/161/57 93/162/57
f 93/162/58 94/161/58 90/163/58 89/164/58
f 91/165/59 95/160/59 93/162/59 89/166/59
f 96/159/60 92/167/60 90/168/60 94/161/60
f 97/169/67 98/170/67 100/171/67 99/172/67
f 99/172/68 100/171/68 104/173/68 103/174/68
f 103/174/69 104/173/69 102/175/69 101/176/69
f 101/176/70 102/175/70 98/177/70 97/178/70
f 99/179/71 103/174/71 101/176/71 97/180/71
f 104/173/72 100/181/72 98/182/72 102/175/72
