# Blender v2.81 (sub 16) OBJ File: 'test.blend'
# www.blender.org
mtllib TestCube2.mtl
o Cube
v 1.741615 1.036678 -1.270054
v 1.700023 -0.899861 -1.090590
v 0.670592 0.977170 1.123643
v 0.569525 -0.930286 1.027622
v 0.232315 1.135955 -1.224102
v 0.513702 -1.151300 -1.319858
v -0.799847 1.089051 1.155244
v -0.429352 -1.136959 0.966221
vt 0.625000 0.500000
vt 0.875000 0.500000
vt 0.875000 0.750000
vt 0.625000 0.750000
vt 0.375000 0.750000
vt 0.625000 1.000000
vt 0.375000 1.000000
vt 0.375000 0.000000
vt 0.625000 0.000000
vt 0.625000 0.250000
vt 0.375000 0.250000
vt 0.125000 0.500000
vt 0.375000 0.500000
vt 0.125000 0.750000
vn 0.0720 0.9959 0.0539
vn -0.0094 -0.0694 0.9975
vn -0.9152 -0.1077 -0.3882
vn 0.1932 -0.9772 0.0874
vn 0.8987 -0.0238 0.4380
vn 0.0687 -0.0159 -0.9975
usemtl Material
s off
f 1/1/1 5/2/1 7/3/1 3/4/1
f 4/5/2 3/4/2 7/6/2 8/7/2
f 8/8/3 7/9/3 5/10/3 6/11/3
f 6/12/4 2/13/4 4/5/4 8/14/4
f 2/13/5 1/1/5 3/4/5 4/5/5
f 6/11/6 5/10/6 1/1/6 2/13/6
